<?xml version="1.0" standalone="no"?><!DOCTYPE svg PUBLIC "-//W3C//DTD SVG 1.1//EN" "http://www.w3.org/Graphics/SVG/1.1/DTD/svg11.dtd"><svg t="1702795181245" class="icon" viewBox="0 0 1024 1024" version="1.1" xmlns="http://www.w3.org/2000/svg" p-id="6777" xmlns:xlink="http://www.w3.org/1999/xlink" width="200" height="200"><path d="M456 146.7c-13.3 298.4 112.9 466.1 378.6 503.2-1.6-0.9 13.7-32.9 46.1-96.1l-13-312.4-153.9-106.9L456 146.7z m0 0" fill="#7EB9FF" p-id="6778"></path><path d="M511.5 676c14.6 0 28.2 7.8 35.5 20.5 7.3 12.7 7.3 28.3 0 41S526.2 758 511.5 758H306.7c-113.1 0-204.8-91.7-204.8-204.8V307.3c0-113.1 91.7-204.8 204.8-204.8h409.6c113.1 0 204.8 91.7 204.8 204.8v245.8c0 113.1-91.7 204.8-204.8 204.8-14.6 0-28.2-7.8-35.5-20.5-7.3-12.7-7.3-28.3 0-41s20.8-20.5 35.5-20.5c32.6 0 63.8-12.9 86.9-36 23-23 36-54.3 36-86.9V307.3c0-67.9-55-122.9-122.9-122.9H306.7c-67.9 0-122.9 55-122.9 122.9v245.8c0 32.6 12.9 63.8 36 86.9 23 23 54.3 36 86.9 36h204.8zM296.2 819.9h430.6c27.6 0.8 49.5 23.4 49.5 50.9 0 27.6-21.9 50.2-49.5 50.9H296.2c-27.6-0.8-49.5-23.4-49.5-50.9 0-27.6 21.9-50.2 49.5-50.9zM285.3 245c10.9 0 21.3 4.3 29 12 7.7 7.7 12 18.1 12 29v81.9c0 22.6-18.3 41-41 41-22.6 0-41-18.3-41-41V286c0-10.9 4.3-21.3 12-29 7.7-7.7 18.2-12 29-12z m-40.9 39.9c0-10.9 4.3-21.3 12-29 7.7-7.7 18.1-12 29-12h81.9c22.6 0 41 18.3 41 41 0 22.6-18.3 41-41 41h-81.9c-10.9 0-21.3-4.3-29-12-7.7-7.7-12-18.1-12-29z m492.9 330.8c-10.9 0-21.3-4.3-29-12-7.7-7.7-12-18.1-12-29v-81.9c0-22.6 18.3-41 41-41 22.6 0 41 18.3 41 41v81.9c0 10.9-4.3 21.3-12 29-7.7 7.7-18.2 12-29 12z m40.9-39.9c0 10.9-4.3 21.3-12 29-7.7 7.7-18.1 12-29 12h-81.9c-22.6 0-41-18.3-41-41 0-22.6 18.3-41 41-41h81.9c10.9 0 21.3 4.3 29 12 7.7 7.7 12 18.1 12 29zM675.3 266.4" fill="#0076FF" p-id="6779"></path><path d="M709.5 292.5m-40 0a40 40 0 1 0 80 0 40 40 0 1 0-80 0Z" fill="#A71338" p-id="6780"></path></svg>